<svg width="26" height="26" viewBox="0 0 26 26" fill="none" xmlns="http://www.w3.org/2000/svg">
<g clip-path="url(#clip0_1035_2755)">
<path d="M26 19.5H21.6667V7.58333C21.6667 6.72138 21.3243 5.89473 20.7148 5.28524C20.1053 4.67574 19.2786 4.33333 18.4167 4.33333H6.5V0H4.33333V4.33333H0V6.5H4.33333V18.4167C4.33333 19.2786 4.67574 20.1053 5.28524 20.7148C5.89473 21.3243 6.72138 21.6667 7.58333 21.6667H19.5V26H21.6667V21.6667H26V19.5ZM7.58333 19.5C7.29602 19.5 7.02047 19.3859 6.8173 19.1827C6.61414 18.9795 6.5 18.704 6.5 18.4167V6.5H18.4167C18.704 6.5 18.9795 6.61414 19.1827 6.8173C19.3859 7.02047 19.5 7.29602 19.5 7.58333V19.5H7.58333Z" fill="#286BE8"/>
</g>
<defs>
<clipPath id="clip0_1035_2755">
<rect width="26" height="26" fill="white"/>
</clipPath>
</defs>
</svg>
