<svg width="17" height="20" viewBox="0 0 17 20" fill="none" xmlns="http://www.w3.org/2000/svg">
<path d="M15.8326 3.33333H13.2493C13.0559 2.39284 12.5441 1.54779 11.8003 0.940598C11.0565 0.333408 10.1261 0.0012121 9.16593 0L7.49927 0C6.5391 0.0012121 5.6087 0.333408 4.86489 0.940598C4.12108 1.54779 3.60935 2.39284 3.41593 3.33333H0.832601C0.611587 3.33333 0.399626 3.42113 0.243345 3.57741C0.0870649 3.73369 -0.000732422 3.94565 -0.000732422 4.16667C-0.000732422 4.38768 0.0870649 4.59964 0.243345 4.75592C0.399626 4.9122 0.611587 5 0.832601 5H1.66593V15.8333C1.66726 16.938 2.10667 17.997 2.88778 18.7782C3.6689 19.5593 4.72794 19.9987 5.8326 20H10.8326C11.9373 19.9987 12.9963 19.5593 13.7774 18.7782C14.5585 17.997 14.9979 16.938 14.9993 15.8333V5H15.8326C16.0536 5 16.2656 4.9122 16.4219 4.75592C16.5781 4.59964 16.6659 4.38768 16.6659 4.16667C16.6659 3.94565 16.5781 3.73369 16.4219 3.57741C16.2656 3.42113 16.0536 3.33333 15.8326 3.33333V3.33333ZM7.49927 1.66667H9.16593C9.68283 1.6673 10.1869 1.82781 10.6089 2.1262C11.031 2.42459 11.3504 2.84624 11.5234 3.33333H5.14177C5.31475 2.84624 5.63418 2.42459 6.05626 2.1262C6.47833 1.82781 6.98237 1.6673 7.49927 1.66667V1.66667ZM13.3326 15.8333C13.3326 16.4964 13.0692 17.1323 12.6004 17.6011C12.1315 18.0699 11.4956 18.3333 10.8326 18.3333H5.8326C5.16956 18.3333 4.53367 18.0699 4.06483 17.6011C3.59599 17.1323 3.3326 16.4964 3.3326 15.8333V5H13.3326V15.8333Z" fill="#374957"/>
<path d="M10.267 9.73242L6.73149 13.268" stroke="#374957" stroke-width="1.5" stroke-linecap="round"/>
<path d="M10.267 13.2676L6.7315 9.73204" stroke="#374957" stroke-width="1.5" stroke-linecap="round"/>
</svg>
