<svg width="26" height="26" viewBox="0 0 26 26" fill="none" xmlns="http://www.w3.org/2000/svg">
<g clip-path="url(#clip0_1035_2752)">
<path d="M24.7334 9.93603L20.5311 5.73378C20.1007 5.31813 19.4149 5.33007 18.9993 5.76044C18.5938 6.18025 18.5938 6.84584 18.9993 7.26565L23.2016 11.4679C23.3264 11.5952 23.4355 11.7371 23.5266 11.8904C23.5103 11.8904 23.4973 11.8817 23.4811 11.8817L6.49005 11.9164C5.89175 11.9164 5.40674 12.4014 5.40674 12.9997C5.40674 13.598 5.89175 14.083 6.49005 14.083L23.4746 14.0483C23.5049 14.0483 23.5298 14.0332 23.5591 14.031C23.463 14.2143 23.3411 14.3828 23.1972 14.5315L18.995 18.7338C18.5646 19.1494 18.5527 19.8352 18.9683 20.2656C19.384 20.696 20.0698 20.7079 20.5001 20.2923C20.5092 20.2835 20.5181 20.2746 20.5268 20.2656L24.7291 16.0633C26.4207 14.3712 26.4207 11.6282 24.7291 9.93603H24.7334Z" fill="#286BE8"/>
<path d="M7.58521 23.8333H5.41852C3.62361 23.8333 2.16852 22.3782 2.16852 20.5833V5.41668C2.16852 3.62177 3.62361 2.16668 5.41852 2.16668H7.58521C8.18351 2.16668 8.66852 1.68167 8.66852 1.08337C8.66852 0.485063 8.18356 0 7.58521 0H5.41852C2.42852 0.00360547 0.00549756 2.42663 0.00189209 5.41668V20.5834C0.00549756 23.5734 2.42852 25.9964 5.41858 26H7.58526C8.18356 26 8.66858 25.515 8.66858 24.9167C8.66858 24.3184 8.18356 23.8333 7.58521 23.8333Z" fill="#286BE8"/>
</g>
<defs>
<clipPath id="clip0_1035_2752">
<rect width="26" height="26" fill="white"/>
</clipPath>
</defs>
</svg>
