<svg width="26" height="26" viewBox="0 0 26 26" fill="none" xmlns="http://www.w3.org/2000/svg">
<g clip-path="url(#clip0_1035_2753)">
<path d="M8.1412 5.42649C8.08101 5.27832 7.97811 5.15141 7.84557 5.0619C7.71304 4.97238 7.55688 4.92432 7.39695 4.92383V4.92383C7.23405 4.9243 7.07508 4.97386 6.94077 5.06604C6.80646 5.15823 6.70305 5.28875 6.64403 5.44058L4.50228 11.0598C4.47057 11.143 4.45555 11.2316 4.4581 11.3205C4.46065 11.4095 4.48071 11.4971 4.51713 11.5783C4.55356 11.6594 4.60563 11.7327 4.67037 11.7937C4.73511 11.8548 4.81126 11.9025 4.89445 11.9341C4.97135 11.963 5.05278 11.9781 5.13495 11.9785C5.27182 11.9785 5.40549 11.9372 5.51841 11.8598C5.63133 11.7825 5.7182 11.6728 5.76762 11.5452L6.13487 10.5821H8.63845L9.00137 11.543C9.03274 11.6262 9.08019 11.7025 9.14102 11.7673C9.20185 11.8322 9.27487 11.8845 9.3559 11.9212C9.43693 11.9578 9.52439 11.9782 9.61328 11.981C9.70218 11.9839 9.79077 11.9692 9.87399 11.9379C9.95722 11.9065 10.0334 11.859 10.0983 11.7982C10.1632 11.7374 10.2155 11.6644 10.2522 11.5833C10.2888 11.5023 10.3092 11.4148 10.312 11.326C10.3149 11.2371 10.3002 11.1485 10.2689 11.0652L8.1412 5.42649ZM6.65053 9.22466L7.39153 7.27466L8.12712 9.22466H6.65053Z" fill="#286BE8"/>
<path d="M12.168 4.92383C11.9885 4.92411 11.8164 4.99554 11.6895 5.12246C11.5626 5.24937 11.4912 5.42143 11.4909 5.60091V11.3014C11.4909 11.481 11.5622 11.6532 11.6892 11.7802C11.8162 11.9072 11.9884 11.9785 12.168 11.9785C12.3475 11.9785 12.5197 11.9072 12.6467 11.7802C12.7737 11.6532 12.845 11.481 12.845 11.3014V5.60091C12.845 5.42134 12.7737 5.24912 12.6467 5.12214C12.5197 4.99516 12.3475 4.92383 12.168 4.92383V4.92383Z" fill="#286BE8"/>
<path d="M20.5833 0H5.41667C3.98061 0.00172018 2.60385 0.572955 1.58841 1.5884C0.572956 2.60385 0.00172018 3.98061 0 5.41667L0 20.5833C0.00172018 22.0194 0.572956 23.3961 1.58841 24.4116C2.60385 25.427 3.98061 25.9983 5.41667 26H17.7049C18.4166 26.002 19.1216 25.8629 19.7791 25.5907C20.4366 25.3184 21.0336 24.9185 21.5356 24.414L24.4129 21.5345C24.9175 21.0328 25.3175 20.436 25.59 19.7786C25.8624 19.1213 26.0018 18.4165 26 17.7049V5.41667C25.9983 3.98061 25.427 2.60385 24.4116 1.5884C23.3962 0.572955 22.0194 0.00172018 20.5833 0V0ZM2.16667 20.5833V5.41667C2.16667 4.55471 2.50908 3.72806 3.11857 3.11857C3.72806 2.50908 4.55471 2.16667 5.41667 2.16667H20.5833C21.4453 2.16667 22.2719 2.50908 22.8814 3.11857C23.4909 3.72806 23.8333 4.55471 23.8333 5.41667V16.25H19.5C18.638 16.25 17.8114 16.5924 17.2019 17.2019C16.5924 17.8114 16.25 18.638 16.25 19.5V23.8333H5.41667C4.55471 23.8333 3.72806 23.4909 3.11857 22.8814C2.50908 22.2719 2.16667 21.4453 2.16667 20.5833ZM20.0038 22.8822C19.5683 23.3166 19.0176 23.6173 18.4167 23.7488V19.5C18.4167 19.2127 18.5308 18.9371 18.734 18.734C18.9371 18.5308 19.2127 18.4167 19.5 18.4167H23.7521C23.6181 19.0163 23.3177 19.566 22.8854 20.0027L20.0038 22.8822Z" fill="#286BE8"/>
</g>
<defs>
<clipPath id="clip0_1035_2753">
<rect width="26" height="26" fill="white"/>
</clipPath>
</defs>
</svg>
