<svg width="26" height="26" viewBox="0 0 26 26" fill="none" xmlns="http://www.w3.org/2000/svg">
<g clip-path="url(#clip0_1035_2754)">
<path d="M17.3332 10.834C19.1281 10.834 20.5832 9.37891 20.5832 7.58398C20.5832 5.78906 19.1281 4.33398 17.3332 4.33398C15.5383 4.33398 14.0832 5.78906 14.0832 7.58398C14.0832 9.37891 15.5383 10.834 17.3332 10.834Z" fill="#286BE8"/>
<path d="M4.33313 20.5834C4.33313 20.8707 4.44727 21.1463 4.65043 21.3495C4.8536 21.5526 5.12915 21.6668 5.41646 21.6668H21.6665V20.1349L12.0475 10.516C11.4381 9.90673 10.6116 9.56445 9.7498 9.56445C8.88801 9.56445 8.06151 9.90673 7.45205 10.516L4.33313 13.6349V20.5834Z" fill="#286BE8"/>
<path d="M22.7498 26.0006H17.3332V23.834H22.7498C23.0372 23.834 23.3127 23.7198 23.5159 23.5167C23.719 23.3135 23.8332 23.038 23.8332 22.7506V17.334H25.9998V22.7506C25.9998 23.6126 25.6574 24.4392 25.0479 25.0487C24.4384 25.6582 23.6118 26.0006 22.7498 26.0006Z" fill="#286BE8"/>
<path d="M2.16667 8.66667H0V3.25C0 2.38805 0.34241 1.5614 0.951903 0.951903C1.5614 0.34241 2.38805 0 3.25 0L8.66667 0V2.16667H3.25C2.96268 2.16667 2.68713 2.2808 2.48397 2.48397C2.2808 2.68713 2.16667 2.96268 2.16667 3.25V8.66667Z" fill="#286BE8"/>
<path d="M8.66667 26.0006H3.25C2.38805 26.0006 1.5614 25.6582 0.951903 25.0487C0.34241 24.4392 0 23.6126 0 22.7506L0 17.334H2.16667V22.7506C2.16667 23.038 2.2808 23.3135 2.48397 23.5167C2.68713 23.7198 2.96268 23.834 3.25 23.834H8.66667V26.0006Z" fill="#286BE8"/>
<path d="M25.9998 8.66667H23.8332V3.25C23.8332 2.96268 23.719 2.68713 23.5159 2.48397C23.3127 2.2808 23.0372 2.16667 22.7498 2.16667H17.3332V0H22.7498C23.6118 0 24.4384 0.34241 25.0479 0.951903C25.6574 1.5614 25.9998 2.38805 25.9998 3.25V8.66667Z" fill="#286BE8"/>
</g>
<defs>
<clipPath id="clip0_1035_2754">
<rect width="26" height="26" fill="white"/>
</clipPath>
</defs>
</svg>
