<svg width="24" height="24" viewBox="0 0 24 24" fill="none" xmlns="http://www.w3.org/2000/svg">
<g clip-path="url(#clip0_693_989)">
<path d="M24 16.0006V21.0006C24 21.7963 23.6839 22.5593 23.1213 23.1219C22.5587 23.6846 21.7956 24.0006 21 24.0006H16C14.5971 23.9992 13.2192 23.6289 12.0047 22.9268C10.7901 22.2247 9.78145 21.2156 9.08 20.0006C9.83387 19.9952 10.5852 19.9121 11.322 19.7526C11.8832 20.4543 12.595 21.0206 13.4048 21.4098C14.2146 21.7989 15.1016 22.0009 16 22.0006H21C21.2652 22.0006 21.5196 21.8953 21.7071 21.7077C21.8946 21.5202 22 21.2658 22 21.0006V16.0006C21.9998 15.1019 21.7972 14.2147 21.4074 13.4049C21.0175 12.595 20.4504 11.8834 19.748 11.3226C19.9088 10.5859 19.9933 9.83463 20 9.08062C21.215 9.78207 22.2241 10.7907 22.9262 12.0053C23.6282 13.2199 23.9986 14.5977 24 16.0006ZM17.977 9.65162C18.0705 8.36326 17.8856 7.06986 17.4348 5.85932C16.9841 4.64877 16.278 3.54945 15.3646 2.63604C14.4512 1.72263 13.3518 1.01655 12.1413 0.565779C10.9308 0.115003 9.63736 -0.0699044 8.349 0.0236213C6.06592 0.284354 3.95693 1.3708 2.41918 3.07836C0.881427 4.78593 0.0210272 6.99679 0 9.29462L0 14.3346C0 16.8666 1.507 18.0006 3 18.0006H8.7C10.9988 17.9808 13.211 17.121 14.9198 15.5832C16.6286 14.0453 17.7159 11.9356 17.977 9.65162ZM13.95 4.05162C14.6599 4.76312 15.2088 5.61882 15.5593 6.56081C15.9099 7.5028 16.054 8.5091 15.982 9.51162C15.7686 11.2953 14.9105 12.9394 13.5693 14.1346C12.2282 15.3297 10.4964 15.9933 8.7 16.0006H3C2.072 16.0006 2 14.7256 2 14.3346V9.29462C2.00834 7.499 2.67265 5.76833 3.86792 4.4283C5.06319 3.08827 6.70699 2.23129 8.49 2.01862C8.656 2.00662 8.822 2.00062 8.988 2.00062C9.90927 1.99976 10.8217 2.18046 11.6731 2.53238C12.5245 2.8843 13.2982 3.40055 13.95 4.05162Z" fill="#374957"/>
</g>
<defs>
<clipPath id="clip0_693_989">
<rect width="24" height="24" fill="white"/>
</clipPath>
</defs>
</svg>
