<svg width="24" height="24" viewBox="0 0 24 24" fill="none" xmlns="http://www.w3.org/2000/svg">
<path d="M23 9H1C0.734784 9 0.48043 9.10536 0.292893 9.29289C0.105357 9.48043 0 9.73479 0 10C0 10.2652 0.105357 10.5196 0.292893 10.7071C0.48043 10.8947 0.734784 11 1 11H23C23.2652 11 23.5196 10.8947 23.7071 10.7071C23.8946 10.5196 24 10.2652 24 10C24 9.73479 23.8946 9.48043 23.7071 9.29289C23.5196 9.10536 23.2652 9 23 9Z" fill="#374957"/>
<path d="M23 4H1C0.734784 4 0.48043 4.10536 0.292893 4.2929C0.105357 4.48043 0 4.73479 0 5.00001C0 5.26522 0.105357 5.51958 0.292893 5.70712C0.48043 5.89465 0.734784 6.00001 1 6.00001H23C23.2652 6.00001 23.5196 5.89465 23.7071 5.70712C23.8946 5.51958 24 5.26522 24 5.00001C24 4.73479 23.8946 4.48043 23.7071 4.2929C23.5196 4.10536 23.2652 4 23 4Z" fill="#374957"/>
<rect y="14" width="15" height="2" rx="1" fill="#374957"/>
<rect y="19" width="15" height="2" rx="1" fill="#374957"/>
<path d="M17.5 19.5415V19.5407V15.4578C17.5002 15.2863 17.5503 15.1162 17.6473 14.9664C17.7445 14.8162 17.8859 14.6911 18.0585 14.608C18.2312 14.5249 18.4265 14.4882 18.6222 14.5033C18.8178 14.5185 19.003 14.5848 19.1575 14.6922C19.1576 14.6922 19.1576 14.6923 19.1577 14.6923L21.8728 16.5834V16.5848L22.0869 16.734C22.218 16.8254 22.3222 16.9431 22.3931 17.076C22.4639 17.2087 22.5 17.3538 22.5 17.4999C22.5 17.6459 22.4639 17.791 22.3931 17.9238C22.3222 18.0566 22.2181 18.1743 22.0871 18.2657C22.087 18.2657 22.087 18.2657 22.0869 18.2658L19.1574 20.3062L19.1567 20.3067C19.0024 20.4145 18.8172 20.4811 18.6215 20.4966C18.4257 20.512 18.2303 20.4753 18.0575 20.3922C17.8848 20.3091 17.7435 20.1838 17.6464 20.0335C17.5495 19.8834 17.4997 19.7132 17.5 19.5415Z" fill="#374957" stroke="#374957"/>
</svg>
