<svg width="16" height="16" viewBox="0 0 16 16" fill="none" xmlns="http://www.w3.org/2000/svg">
<g clip-path="url(#clip0_706_2396)">
<path d="M8.0013 13.3333C6.5873 13.3317 5.23167 12.7693 4.23182 11.7695C3.23197 10.7696 2.66956 9.414 2.66797 8V0H4.0013V8C4.0013 9.06087 4.42273 10.0783 5.17287 10.8284C5.92302 11.5786 6.94044 12 8.0013 12C9.06217 12 10.0796 11.5786 10.8297 10.8284C11.5799 10.0783 12.0013 9.06087 12.0013 8V0H13.3346V8C13.333 9.414 12.7706 10.7696 11.7708 11.7695C10.7709 12.7693 9.4153 13.3317 8.0013 13.3333V13.3333Z" fill="#374957"/>
<path d="M16 14.668H0V16.0013H16V14.668Z" fill="#374957"/>
</g>
<defs>
<clipPath id="clip0_706_2396">
<rect width="16" height="16" fill="white"/>
</clipPath>
</defs>
</svg>
