<svg width="140" height="31" viewBox="0 0 140 31" fill="none" xmlns="http://www.w3.org/2000/svg">
<path d="M11.1023 3.5718C9.73569 1.35206 7.31553 0 4.70883 0V0C1.09129 0 -1.17381 3.92986 0.637325 7.07279L12.9653 28.476C14.7765 31.619 19.3019 31.619 21.1131 28.476V28.476C22.6981 25.7246 22.6484 22.326 20.9837 19.622L11.1023 3.5718Z" fill="#FAFAFA"/>
<path d="M29.3737 0H25.9415C20.7227 0 17.5213 5.71825 20.2493 10.1673V10.1673C22.8993 14.4892 29.2097 14.3974 31.7329 10.0001L33.4236 7.05356C35.223 3.91917 32.9726 0 29.3737 0Z" fill="#FAFAFA"/>
<path d="M123.362 30.8332C120.975 30.8332 118.756 30.4541 116.707 29.696C114.685 28.9378 112.93 27.8707 111.441 26.4947C109.953 25.0906 108.788 23.4479 107.945 21.5664C107.131 19.685 106.724 17.635 106.724 15.4166C106.724 13.1701 107.131 11.1202 107.945 9.26682C108.788 7.38538 109.953 5.75666 111.441 4.38068C112.93 2.97661 114.685 1.89548 116.707 1.13729C118.756 0.379097 120.975 0 123.362 0C125.777 0 127.995 0.379097 130.017 1.13729C132.039 1.89548 133.794 2.97661 135.282 4.38068C136.771 5.75666 137.922 7.38538 138.736 9.26682C139.579 11.1202 140 13.1701 140 15.4166C140 17.635 139.579 19.685 138.736 21.5664C137.922 23.4479 136.771 25.0906 135.282 26.4947C133.794 27.8707 132.039 28.9378 130.017 29.696C127.995 30.4541 125.777 30.8332 123.362 30.8332ZM123.362 22.788C124.288 22.788 125.145 22.6195 125.931 22.2825C126.746 21.9455 127.448 21.4681 128.037 20.8503C128.655 20.2045 129.132 19.4322 129.469 18.5336C129.806 17.607 129.975 16.568 129.975 15.4166C129.975 14.2653 129.806 13.2403 129.469 12.3417C129.132 11.415 128.655 10.6428 128.037 10.025C127.448 9.37915 126.746 8.88772 125.931 8.55075C125.145 8.21377 124.288 8.04528 123.362 8.04528C122.435 8.04528 121.565 8.21377 120.75 8.55075C119.964 8.88772 119.262 9.37915 118.644 10.025C118.054 10.6428 117.591 11.415 117.254 12.3417C116.917 13.2403 116.749 14.2653 116.749 15.4166C116.749 16.568 116.917 17.607 117.254 18.5336C117.591 19.4322 118.054 20.2045 118.644 20.8503C119.262 21.4681 119.964 21.9455 120.75 22.2825C121.565 22.6195 122.435 22.788 123.362 22.788Z" fill="#FAFAFA"/>
<path d="M71.9788 30.1595C69.478 30.1595 67.4507 28.1322 67.4507 25.6314V5.91216C67.4507 3.01931 69.7958 0.674194 72.6887 0.674194V0.674194C74.5112 0.674194 76.2028 1.6216 77.155 3.17569L86.2858 18.0784C86.7806 18.8862 86.1994 19.9239 85.2522 19.9239V19.9239C84.3119 19.9239 83.7296 18.8998 84.2105 18.0918L93.0596 3.22404C94.0006 1.64298 95.7046 0.674194 97.5445 0.674194V0.674194C100.421 0.674194 102.756 3.00184 102.764 5.87851L102.82 25.6129C102.827 28.1219 100.795 30.1595 98.2865 30.1595V30.1595C95.792 30.1595 93.7662 28.1444 93.7529 25.65L93.6954 14.8428C93.6939 14.5555 93.9264 14.3217 94.2138 14.3217V14.3217C94.6157 14.3217 94.8647 14.7593 94.6594 15.1049L88.4213 25.6023C87.72 26.7825 86.4487 27.5059 85.0758 27.5059V27.5059C83.7289 27.5059 82.4777 26.8093 81.7681 25.6645L75.3365 15.2877C75.0753 14.8662 75.3784 14.3217 75.8742 14.3217V14.3217C76.2236 14.3217 76.5069 14.605 76.5069 14.9544V25.6314C76.5069 28.1322 74.4796 30.1595 71.9788 30.1595V30.1595Z" fill="#FAFAFA"/>
<path d="M44.5457 15.2063C44.5457 13.2289 46.1487 11.6259 48.1261 11.6259H57.5062C59.4836 11.6259 61.0866 13.2289 61.0866 15.2063V15.2063C61.0866 17.1836 59.4836 18.7866 57.5062 18.7866H48.1261C46.1487 18.7866 44.5457 17.1836 44.5457 15.2063V15.2063ZM48.6185 15.4169C48.6185 19.4182 51.8622 22.6618 55.8634 22.6618H59.6123C61.6827 22.6618 63.3611 24.3403 63.3611 26.4107V26.4107C63.3611 28.4811 61.6827 30.1595 59.6123 30.1595H46.3743C42.2167 30.1595 38.8462 26.7891 38.8462 22.6314V8.20234C38.8462 4.04466 42.2167 0.674194 46.3743 0.674194H59.0647C61.1351 0.674194 62.8136 2.35261 62.8136 4.42305V4.42305C62.8136 6.49348 61.1351 8.1719 59.0647 8.1719H55.716C51.7962 8.1719 48.6185 11.3496 48.6185 15.2694V15.4169Z" fill="#FAFAFA"/>
</svg>
