<svg width="159" height="48" viewBox="0 0 159 48" fill="none" xmlns="http://www.w3.org/2000/svg">
<path d="M21.1023 12.5718C19.7357 10.3521 17.3155 9 14.7088 9C11.0913 9 8.82619 12.9299 10.6373 16.0728L22.9653 37.476C24.7765 40.619 29.3019 40.619 31.1131 37.476C32.6981 34.7246 32.6484 31.326 30.9837 28.622L21.1023 12.5718Z" fill="#286BE8"/>
<path d="M39.3742 9H35.942C30.7232 9 27.5218 14.7183 30.2498 19.1673C32.8998 23.4892 39.2102 23.3974 41.7334 19.0001L43.4241 16.0536C45.2235 12.9192 42.9731 9 39.3742 9Z" fill="#286BE8"/>
<path d="M133.365 39.8332C130.978 39.8332 128.759 39.4541 126.709 38.696C124.688 37.9378 122.933 36.8707 121.444 35.4947C119.956 34.0906 118.791 32.4479 117.948 30.5664C117.134 28.685 116.727 26.635 116.727 24.4166C116.727 22.1701 117.134 20.1202 117.948 18.2668C118.791 16.3854 119.956 14.7567 121.444 13.3807C122.933 11.9766 124.688 10.8955 126.709 10.1373C128.759 9.3791 130.978 9 133.365 9C135.78 9 137.998 9.3791 140.02 10.1373C142.042 10.8955 143.797 11.9766 145.285 13.3807C146.774 14.7567 147.925 16.3854 148.739 18.2668C149.582 20.1202 150.003 22.1701 150.003 24.4166C150.003 26.635 149.582 28.685 148.739 30.5664C147.925 32.4479 146.774 34.0906 145.285 35.4947C143.797 36.8707 142.042 37.9378 140.02 38.696C137.998 39.4541 135.78 39.8332 133.365 39.8332ZM133.365 31.788C134.291 31.788 135.148 31.6195 135.934 31.2825C136.749 30.9455 137.451 30.4681 138.04 29.8503C138.658 29.2045 139.135 28.4322 139.472 27.5336C139.809 26.607 139.978 25.568 139.978 24.4166C139.978 23.2653 139.809 22.2403 139.472 21.3417C139.135 20.415 138.658 19.6428 138.04 19.025C137.451 18.3791 136.749 17.8877 135.934 17.5507C135.148 17.2138 134.291 17.0453 133.365 17.0453C132.438 17.0453 131.568 17.2138 130.753 17.5507C129.967 17.8877 129.265 18.3791 128.647 19.025C128.057 19.6428 127.594 20.415 127.257 21.3417C126.92 22.2403 126.752 23.2653 126.752 24.4166C126.752 25.568 126.92 26.607 127.257 27.5336C127.594 28.4322 128.057 29.2045 128.647 29.8503C129.265 30.4681 129.967 30.9455 130.753 31.2825C131.568 31.6195 132.438 31.788 133.365 31.788Z" fill="#286BE8"/>
<path d="M81.9812 39.1592C79.4804 39.1592 77.4531 37.1319 77.4531 34.6311V14.9118C77.4531 12.0189 79.7982 9.67383 82.6911 9.67383C84.5137 9.67383 86.2052 10.6212 87.1574 12.1753L96.2882 27.0781C96.7831 27.8858 96.2019 28.9235 95.2546 28.9235C94.3143 28.9235 93.732 27.8994 94.213 27.0914L103.062 12.2237C104.003 10.6426 105.707 9.67383 107.547 9.67383C110.424 9.67383 112.758 12.0015 112.766 14.8781L112.823 34.6126C112.83 37.1215 110.798 39.1592 108.289 39.1592C105.794 39.1592 103.769 37.1441 103.755 34.6496L103.698 23.8425C103.696 23.5551 103.929 23.3213 104.216 23.3213C104.618 23.3213 104.867 23.759 104.662 24.1045L98.4237 34.602C97.7224 35.7821 96.4511 36.5055 95.0783 36.5055C93.7313 36.5055 92.4802 35.809 91.7706 34.6641L85.3389 24.2873C85.0777 23.8658 85.3808 23.3213 85.8767 23.3213C86.2261 23.3213 86.5093 23.6046 86.5093 23.954V34.6311C86.5093 37.1319 84.482 39.1592 81.9812 39.1592Z" fill="#286BE8"/>
<path d="M54.5472 24.2059C54.5472 22.2285 56.1502 20.6255 58.1276 20.6255H67.5077C69.485 20.6255 71.088 22.2285 71.088 24.2059C71.088 26.1833 69.485 27.7863 67.5077 27.7863H58.1276C56.1502 27.7863 54.5472 26.1833 54.5472 24.2059ZM58.6199 24.4165C58.6199 28.4178 61.8636 31.6615 65.8649 31.6615H69.6138C71.6842 31.6615 73.3626 33.3399 73.3626 35.4103C73.3626 37.4808 71.6842 39.1592 69.6138 39.1592H56.3758C52.2181 39.1592 48.8477 35.7887 48.8477 31.631V17.202C48.8477 13.0443 52.2181 9.67383 56.3758 9.67383H69.0662C71.1366 9.67383 72.815 11.3522 72.815 13.4227C72.815 15.4931 71.1366 17.1715 69.0662 17.1715H65.7175C61.7976 17.1715 58.6199 20.3492 58.6199 24.2691V24.4165Z" fill="#286BE8"/>
</svg>
